<?xml version="1.0" encoding="UTF-8" standalone="no"?>
<!-- Created with Inkscape (http://www.inkscape.org/) -->

<svg
   xmlns="http://www.w3.org/2000/svg"
   version="1.1"
   width="160.547"
   height="20.955"
   viewBox="-217 -411.979 160.547 20.955"
   xml:space="preserve">
<defs
   id="defs3067">
</defs>
<path
   d="m -207.874,-401.577 v -8.22 h 2.194 v 8.489 c 0,4.555 -3.739,5.265 -5.661,5.265 -1.923,0 -5.659,-0.71 -5.659,-5.265 v -8.489 h 2.193 v 8.221 c 0,3.197 2.275,3.425 3.466,3.425 1.191,0 3.467,-0.228 3.467,-3.426"
   id="path3069"
   style="fill:#231e20" />
<path
   d="m -197.745,-403.708 c 0,-0.983 -0.729,-1.338 -1.691,-1.338 -1.045,0 -1.86,0.231 -2.422,0.503 v 8.227 h -2.152 v -10.44 h 1.441 l 0.207,0.583 c 0.857,-0.562 1.923,-0.855 2.925,-0.855 2.567,0 3.842,1.253 3.842,3.361 v 7.352 h -2.15 v -7.393 z"
   id="path3071"
   style="fill:#231e20" />
<path
   d="m -193.817,-411.979 h 2.108 v 5.515 c 0.835,-0.378 1.524,-0.564 2.36,-0.564 3.529,0 4.53,2.193 4.53,5.492 0,3.279 -1.001,5.493 -4.53,5.493 -1.004,0 -1.922,-0.335 -2.862,-0.855 l -0.207,0.585 h -1.399 v -15.666 z m 2.881,7.144 c -0.312,0.083 -0.564,0.167 -0.773,0.271 v 6.035 c 0.605,0.292 1.338,0.504 2.36,0.504 2.048,0 2.36,-1.631 2.36,-3.511 0,-1.899 -0.312,-3.509 -2.36,-3.509 -0.669,0 -1.171,0.106 -1.587,0.21"
   id="path3073"
   style="fill:#231e20" />
<path
   d="m -179.221,-396.043 c -3.76,0 -4.533,-2.235 -4.533,-5.493 0,-3.256 0.773,-5.492 4.533,-5.492 3.802,0 4.533,2.236 4.533,5.492 0,3.257 -0.731,5.493 -4.533,5.493 m 0,-9.002 c -2.232,0 -2.402,1.525 -2.402,3.509 0,1.984 0.17,3.511 2.402,3.511 2.195,0 2.402,-1.526 2.402,-3.511 10e-4,-1.984 -0.206,-3.509 -2.402,-3.509"
   id="path3075"
   style="fill:#231e20" />
<polygon
   points="44.881,5.221 47.242,8.855 49.579,5.221 52.15,5.221 48.494,10.297 52.356,15.665 49.769,15.665 47.242,11.821 44.691,15.665 42.124,15.665 45.988,10.297 42.331,5.221 "
   transform="translate(-217,-411.979)"
   id="polygon3077"
   style="fill:#231e20" />
<path
   d="m -162.325,-400.533 c 0.166,1.44 0.772,2.507 2.443,2.507 1.338,0 2.299,-0.189 3.593,-0.754 v 2.026 c -1.338,0.605 -2.59,0.71 -3.593,0.71 -3.528,0 -4.657,-2.194 -4.657,-5.493 0,-3.299 1.129,-5.492 4.657,-5.492 3.654,0 4.156,2.569 4.156,5.492 v 1.004 h -6.599 z m -0.021,-1.859 h 4.405 c -0.021,-1.379 -0.229,-2.653 -1.941,-2.653 -1.795,0 -2.318,1.15 -2.464,2.653"
   id="path3079"
   style="fill:#231e20" />
<path
   d="m -145.264,-396.314 h -1.397 l -0.21,-0.585 c -0.939,0.521 -1.857,0.855 -2.86,0.855 -3.53,0 -4.532,-2.214 -4.532,-5.493 0,-3.299 1.002,-5.492 4.532,-5.492 0.836,0 1.524,0.187 2.358,0.564 v -4.722 h 2.109 v 14.873 z m -4.467,-8.731 c -2.046,0 -2.358,1.609 -2.358,3.509 0,1.88 0.312,3.511 2.358,3.511 1.024,0 1.754,-0.212 2.358,-0.504 v -6.036 c -0.206,-0.104 -0.456,-0.188 -0.772,-0.271 -0.417,-0.103 -0.917,-0.209 -1.586,-0.209"
   id="path3081"
   style="fill:#231e20" />
<path
   d="m -134.697,-411.645 c 1.808,0 3.173,0.342 4.098,0.745 v 2.15 c -1.649,-0.684 -2.732,-0.885 -4.098,-0.885 -2.857,0 -3.842,2.531 -3.842,5.788 0,3.259 0.984,5.79 3.842,5.79 1.365,0 2.448,-0.201 4.098,-0.888 v 2.154 c -0.925,0.401 -2.29,0.744 -4.098,0.744 -4.584,0 -6.03,-3.518 -6.03,-7.801 -0.001,-4.278 1.446,-7.797 6.03,-7.797"
   id="path3083"
   style="fill:#902c89" />
<path
   d="m -125.434,-396.045 c -3.617,0 -4.361,-2.149 -4.361,-5.289 0,-3.134 0.744,-5.284 4.361,-5.284 3.658,0 4.361,2.15 4.361,5.284 10e-4,3.139 -0.702,5.289 -4.361,5.289 m 0,-8.665 c -2.151,0 -2.312,1.469 -2.312,3.376 0,1.911 0.16,3.378 2.312,3.378 2.111,0 2.312,-1.467 2.312,-3.378 0.001,-1.908 -0.2,-3.376 -2.312,-3.376"
   id="path3085"
   style="fill:#902c89" />
<path
   d="m -113.836,-403.423 c 0,-0.947 -0.705,-1.287 -1.629,-1.287 -1.004,0 -1.789,0.221 -2.329,0.483 v 7.918 h -2.071 v -10.048 h 1.385 l 0.202,0.562 c 0.826,-0.543 1.85,-0.822 2.813,-0.822 2.475,0 3.699,1.205 3.699,3.232 v 7.076 h -2.07 v -7.114 z"
   id="path3087"
   style="fill:#902c89" />
<path
   d="m -106.479,-402.399 c 2.936,0.281 3.597,1.288 3.597,3.056 0,1.607 -1.002,3.298 -4.12,3.298 -0.964,0 -2.434,-0.264 -3.175,-0.565 v -1.949 c 0.805,0.28 1.93,0.603 3.196,0.603 1.627,0 2.089,-0.683 2.089,-1.368 0,-0.664 -0.239,-1.103 -1.809,-1.246 -2.975,-0.261 -3.577,-1.366 -3.577,-2.853 0,-1.507 0.944,-3.195 3.86,-3.195 0.922,0 2.029,0.121 3.074,0.582 v 1.91 c -0.984,-0.322 -1.91,-0.584 -3.096,-0.584 -1.548,0 -1.868,0.563 -1.868,1.287 0,0.581 0.302,0.884 1.829,1.024"
   id="path3089"
   style="fill:#902c89" />
<path
   d="m -99.324,-399.245 c 0,0.947 0.703,1.288 1.627,1.288 1.006,0 1.79,-0.222 2.334,-0.48 v -7.921 h 2.066 v 10.049 h -1.384 l -0.203,-0.562 c -0.822,0.543 -1.849,0.825 -2.813,0.825 -2.473,0 -3.698,-1.208 -3.698,-3.239 v -7.073 h 2.071 v 7.113 z"
   id="path3091"
   style="fill:#902c89" />
<path
   d="m -88.832,-396.045 c -1.59,0 -2.433,-0.645 -2.433,-2.434 v -12.904 h 2.029 v 12.964 c 0,0.363 0.201,0.463 0.783,0.463 v 1.911 h -0.379 z"
   id="path3093"
   style="fill:#902c89" />
<path
   d="m -81.377,-396.167 c -0.503,0.121 -1.084,0.121 -1.266,0.121 -1.647,0 -3.315,-0.847 -3.315,-2.815 v -5.727 h -1.871 v -1.247 l 1.871,-0.522 v -2.535 l 2.028,-0.562 v 3.096 h 2.976 v 1.77 h -2.976 v 5.546 c 0,0.848 0.565,1.086 1.447,1.086 0.385,0 0.885,-0.04 1.105,-0.081 v 1.87 z"
   id="path3095"
   style="fill:#902c89" />
<path
   d="m -78.504,-411.121 c 0.784,0 1.406,0.622 1.406,1.406 0,0.782 -0.622,1.405 -1.406,1.405 -0.782,0 -1.405,-0.623 -1.405,-1.405 0,-0.784 0.623,-1.406 1.405,-1.406 m 1.406,15.076 c -1.588,0 -2.43,-0.645 -2.43,-2.434 v -7.879 h 2.03 v 7.938 c 0,0.363 0.2,0.463 0.784,0.463 v 1.911 h -0.384 z"
   id="path3097"
   style="fill:#902c89" />
<path
   d="m -69.197,-403.423 c 0,-0.947 -0.702,-1.287 -1.628,-1.287 -1.005,0 -1.788,0.221 -2.33,0.483 v 7.918 h -2.069 v -10.048 h 1.385 l 0.2,0.562 c 0.825,-0.543 1.851,-0.822 2.814,-0.822 2.472,0 3.699,1.205 3.699,3.232 v 7.076 h -2.071 v -7.114 z"
   id="path3099"
   style="fill:#902c89" />
<path
   d="m -61.701,-398.781 c -0.24,0 -0.482,0 -0.7,-0.021 -0.244,0.161 -0.505,0.4 -0.505,0.604 0,0.24 0.1,0.321 0.364,0.361 l 3.194,0.382 c 1.867,0.222 2.895,1.005 2.895,2.873 0,2.532 -2.451,3.558 -5.248,3.558 -2.854,0 -4.561,-0.966 -4.561,-3.276 0,-1.205 0.763,-1.95 1.688,-2.431 v -0.02 c -0.222,-0.281 -0.362,-0.665 -0.362,-1.186 0,-0.584 0.303,-1.088 0.705,-1.446 -1.106,-0.706 -1.485,-1.933 -1.485,-3.319 0,-2.131 0.921,-3.918 4.016,-3.918 0.706,0 1.308,0.099 1.811,0.262 h 3.235 v 1.366 l -1.366,0.381 c 0.241,0.563 0.343,1.225 0.343,1.909 -0.002,2.132 -0.907,3.921 -4.024,3.921 m -0.605,2.814 c -1.063,0.343 -1.908,0.844 -1.908,1.668 0,1.086 0.845,1.367 2.513,1.367 1.67,0 3.176,-0.362 3.176,-1.648 0,-0.704 -0.3,-0.983 -1.162,-1.084 l -2.619,-0.303 z m 0.605,-4.723 c 1.849,0 2.071,-0.965 2.071,-2.011 0,-1.045 -0.223,-2.01 -2.071,-2.01 -1.848,0 -2.05,0.965 -2.05,2.01 0,1.046 0.202,2.011 2.05,2.011"
   id="path3101"
   style="fill:#902c89" />
</svg>